# xmcd CD database file
#
# Track frame offsets:
#	150
#	29027
#	54481
#	89892
#	117666
#	149088
#	178449
#	211285
#	232367
#	261690
#
# Disc length: 3731 seconds
#
# Revision: 0
# Processed by: cddbd v1.5.2PL0 Copyright (c) Steve Scherf et al.
# Submitted via: CDex 1.70beta2
#
DISCID=b60e910a
DTITLE=Tsiganov Brothers - Tsiganov Brothers
DYEAR=2004
DGENRE=Jazz
TTITLE0=In The Middle Of The East
TTITLE1=That Unpredictable Eugene
TTITLE2=Rio De Corea
TTITLE3=She Lives In Brazil
TTITLE4=Just A Bossa
TTITLE5=My Brazil
TTITLE6=Don Arcadon
TTITLE7=There Is No Farewell
TTITLE8=Passing By
TTITLE9=Out Of Reach
EXTD=YEAR: 2004
EXTT0=
EXTT1=
EXTT2=
EXTT3=
EXTT4=
EXTT5=
EXTT6=
EXTT7=
EXTT8=
EXTT9=
PLAYORDER=
